<svg xmlns="http://www.w3.org/2000/svg" xmlns:xlink="http://www.w3.org/1999/xlink" width="500" zoomAndPan="magnify" viewBox="0 0 375 74.999997" height="60" preserveAspectRatio="xMidYMid meet" version="1.0"><defs><g/><clipPath id="0c158af6f6"><path d="M 171 30 L 214 30 L 214 67.660156 L 171 67.660156 Z M 171 30 " clip-rule="nonzero"/></clipPath><clipPath id="ab6d9c5ff1"><path d="M 162.039062 9.160156 L 197 9.160156 L 197 51 L 162.039062 51 Z M 162.039062 9.160156 " clip-rule="nonzero"/></clipPath></defs><g clip-path="url(#0c158af6f6)"><path fill="#5ce1e6" d="M 189.238281 67.496094 C 188.445312 67.496094 187.539062 67.15625 186.859375 66.476562 L 172.132812 51.863281 C 172.132812 51.863281 172.132812 51.863281 172.132812 51.75 C 171.453125 51.070312 171.226562 50.390625 171.226562 49.484375 C 171.226562 49.03125 171.566406 48.691406 172.019531 48.691406 L 202.265625 31.023438 C 202.605469 30.683594 203.171875 30.683594 203.398438 31.023438 L 212.800781 40.535156 C 214.160156 41.894531 214.160156 43.933594 212.800781 45.292969 L 191.617188 66.476562 C 190.9375 67.15625 190.144531 67.496094 189.238281 67.496094 Z M 189.238281 67.496094 " fill-opacity="1" fill-rule="evenodd"/></g><path fill="#ffffff" d="M 194.222656 56.960938 C 193.996094 56.960938 193.65625 56.847656 193.429688 56.847656 C 193.316406 56.847656 193.316406 56.847656 193.316406 56.847656 L 173.378906 51.410156 C 172.585938 51.183594 171.792969 50.730469 171.339844 49.9375 C 171.113281 49.484375 171.226562 49.03125 171.566406 48.804688 L 189.011719 18.335938 C 189.125 17.882812 189.578125 17.65625 190.03125 17.769531 L 202.945312 21.28125 C 204.644531 21.734375 205.777344 23.660156 205.324219 25.472656 L 197.507812 54.46875 C 197.167969 55.941406 195.808594 56.960938 194.222656 56.960938 Z M 194.222656 56.960938 " fill-opacity="1" fill-rule="evenodd"/><g clip-path="url(#ab6d9c5ff1)"><path fill="#ff5757" d="M 173.265625 50.617188 C 172.699219 50.617188 172.132812 50.390625 171.566406 50.164062 C 170.773438 49.710938 170.207031 48.917969 169.980469 48.125 L 162.277344 19.128906 C 162.050781 18.222656 162.164062 17.316406 162.617188 16.523438 C 163.070312 15.84375 163.75 15.277344 164.65625 14.9375 L 184.707031 9.613281 C 186.519531 9.160156 188.332031 10.179688 188.898438 11.992188 L 196.601562 40.988281 C 197.054688 42.800781 196.035156 44.5 194.222656 45.179688 L 174.171875 50.503906 C 173.832031 50.503906 173.605469 50.617188 173.265625 50.617188 Z M 173.265625 50.617188 " fill-opacity="1" fill-rule="evenodd"/></g><g fill="#ffffff" fill-opacity="1"><g transform="translate(20.484097, 49.083987)"><g><path d="M 17.921875 -20.6875 C 18.621094 -20.6875 19.25 -20.820312 19.699219 -21.179688 C 20.148438 -21.515625 20.4375 -22.035156 20.4375 -22.910156 C 20.4375 -23.832031 19.898438 -24.796875 19 -25.648438 C 18.101562 -26.503906 16.914062 -27.222656 15.566406 -27.761719 C 14.21875 -28.300781 12.78125 -28.613281 11.433594 -28.613281 C 8.714844 -28.613281 6.355469 -27.804688 4.671875 -26.4375 C 2.964844 -25.066406 1.976562 -23.089844 1.976562 -20.753906 C 1.976562 -19.699219 2.179688 -18.777344 2.582031 -17.992188 C 3.367188 -16.375 4.671875 -15.160156 6.3125 -14.21875 C 7.949219 -13.273438 9.726562 -12.488281 11.363281 -11.792969 C 12.195312 -11.453125 12.914062 -11.09375 13.566406 -10.714844 C 14.824219 -9.972656 15.699219 -9.140625 15.699219 -8.039062 C 15.699219 -6.960938 15.046875 -6.132812 14.148438 -5.59375 C 13.230469 -5.03125 12.039062 -4.738281 10.9375 -4.738281 C 9.792969 -4.738281 8.714844 -5.054688 7.816406 -5.523438 C 6.894531 -5.996094 6.152344 -6.625 5.726562 -7.320312 C 4.917969 -8.039062 4.175781 -8.46875 3.390625 -8.46875 C 2.582031 -8.46875 1.976562 -8.128906 1.617188 -7.613281 C 1.234375 -7.097656 1.078125 -6.421875 1.167969 -5.703125 C 1.460938 -4.335938 2.378906 -2.851562 3.996094 -1.707031 C 5.59375 -0.539062 7.882812 0.246094 10.914062 0.246094 C 13.429688 0.246094 16.015625 -0.515625 17.992188 -1.953125 C 19.96875 -3.367188 21.316406 -5.457031 21.316406 -8.128906 C 21.316406 -9.164062 21.113281 -10.085938 20.707031 -10.871094 C 19.898438 -12.464844 18.507812 -13.679688 16.800781 -14.667969 C 15.09375 -15.632812 13.296875 -16.441406 11.589844 -17.183594 C 10.734375 -17.5625 9.972656 -17.945312 9.296875 -18.328125 C 7.949219 -19.089844 7.074219 -19.945312 7.074219 -21.046875 C 7.074219 -21.964844 7.636719 -22.753906 8.398438 -23.246094 C 9.164062 -23.742188 10.175781 -24.011719 11.074219 -24.011719 C 12.847656 -24.011719 14.058594 -23.203125 15.566406 -21.675781 C 16.015625 -21.246094 16.394531 -21 16.777344 -20.84375 C 17.136719 -20.6875 17.496094 -20.664062 17.921875 -20.6875 Z M 17.921875 -20.6875 "/></g></g></g><g fill="#ffffff" fill-opacity="1"><g transform="translate(43.077218, 49.083987)"><g><path d="M 24.773438 -26.007812 C 24.773438 -26.796875 24.460938 -27.46875 23.964844 -27.941406 C 23.472656 -28.390625 22.730469 -28.660156 21.988281 -28.660156 L 3.414062 -28.660156 C 2.628906 -28.660156 1.929688 -28.34375 1.460938 -27.875 C 0.988281 -27.402344 0.695312 -26.726562 0.695312 -26.007812 C 0.695312 -25.222656 1.011719 -24.570312 1.480469 -24.121094 C 1.953125 -23.652344 2.628906 -23.382812 3.414062 -23.382812 L 10.105469 -23.382812 L 10.152344 -2.425781 C 10.152344 -1.683594 10.421875 -1.011719 10.871094 -0.539062 C 11.320312 -0.0664062 11.972656 0.222656 12.757812 0.222656 C 13.5 0.222656 14.171875 -0.0664062 14.621094 -0.539062 C 15.070312 -1.011719 15.339844 -1.683594 15.339844 -2.425781 L 15.40625 -23.382812 L 22.011719 -23.382812 C 22.796875 -23.382812 23.492188 -23.652344 23.988281 -24.121094 C 24.480469 -24.59375 24.773438 -25.222656 24.773438 -26.007812 Z M 24.773438 -26.007812 "/></g></g></g><g fill="#ffffff" fill-opacity="1"><g transform="translate(68.52255, 49.083987)"><g><path d="M 1.863281 -11.273438 C 1.863281 -7.972656 3.167969 -5.007812 5.390625 -2.875 C 7.613281 -0.71875 10.734375 0.605469 14.351562 0.605469 C 17.878906 0.605469 21 -0.742188 23.246094 -2.898438 C 25.46875 -5.054688 26.816406 -8.019531 26.839844 -11.273438 L 26.816406 -25.558594 C 26.816406 -26.839844 26.390625 -27.625 25.695312 -28.074219 C 25 -28.523438 24.101562 -28.636719 23.132812 -28.636719 C 22.394531 -28.636719 21.921875 -28.523438 21.652344 -28.34375 C 21.382812 -28.164062 21.292969 -27.894531 21.292969 -27.558594 C 21.292969 -27.289062 21.335938 -27.019531 21.40625 -26.726562 C 21.472656 -26.4375 21.515625 -26.121094 21.539062 -25.828125 L 21.5625 -11.253906 C 21.5625 -9.433594 20.777344 -7.769531 19.496094 -6.601562 C 18.214844 -5.414062 16.417969 -4.671875 14.351562 -4.671875 C 12.105469 -4.671875 10.332031 -5.414062 9.097656 -6.601562 C 7.839844 -7.769531 7.164062 -9.433594 7.164062 -11.253906 L 7.164062 -25.582031 C 7.097656 -26.839844 6.714844 -27.605469 6.042969 -28.054688 C 5.367188 -28.503906 4.46875 -28.636719 3.480469 -28.636719 C 2.738281 -28.636719 2.269531 -28.523438 2 -28.34375 C 1.730469 -28.164062 1.640625 -27.894531 1.640625 -27.558594 C 1.640625 -27.289062 1.683594 -27.019531 1.75 -26.726562 C 1.820312 -26.4375 1.863281 -26.121094 1.886719 -25.828125 Z M 1.863281 -11.273438 "/></g></g></g><g fill="#ffffff" fill-opacity="1"><g transform="translate(97.134519, 49.083987)"><g><path d="M 12.578125 0.222656 C 15.207031 0.222656 17.699219 -0.492188 19.855469 -1.75 C 21.988281 -3.007812 23.785156 -4.785156 25.066406 -6.941406 C 26.324219 -9.074219 27.042969 -11.542969 27.042969 -14.21875 C 27.042969 -16.84375 26.324219 -19.339844 25.066406 -21.496094 C 23.785156 -23.628906 21.988281 -25.425781 19.855469 -26.683594 C 17.699219 -27.941406 15.207031 -28.660156 12.578125 -28.660156 L 4.582031 -28.660156 C 3.839844 -28.660156 3.367188 -28.546875 3.097656 -28.367188 C 2.828125 -28.1875 2.738281 -27.917969 2.738281 -27.582031 C 2.738281 -27.3125 2.785156 -27.042969 2.851562 -26.75 C 2.917969 -26.457031 2.964844 -26.144531 2.988281 -25.851562 L 2.988281 -2.132812 C 2.988281 -2.042969 3.007812 -1.953125 3.03125 -1.863281 C 3.277344 -0.671875 4.289062 0.222656 5.613281 0.222656 Z M 21.742188 -14.21875 C 21.742188 -11.613281 20.707031 -9.320312 19.046875 -7.703125 C 17.382812 -6.0625 15.09375 -5.054688 12.578125 -4.984375 L 8.265625 -4.984375 L 8.265625 -23.652344 L 12.578125 -23.652344 C 15.09375 -23.628906 17.382812 -22.617188 19.046875 -20.933594 C 20.707031 -19.25 21.742188 -16.914062 21.742188 -14.21875 Z M 21.742188 -14.21875 "/></g></g></g><g fill="#ffffff" fill-opacity="1"><g transform="translate(125.544357, 49.083987)"><g><path d="M 26.707031 -26.03125 C 26.707031 -26.707031 26.457031 -27.355469 25.941406 -27.875 C 25.402344 -28.390625 24.707031 -28.660156 24.011719 -28.683594 C 23.3125 -28.683594 22.664062 -28.414062 22.214844 -27.851562 L 13.632812 -17.003906 L 5.054688 -27.851562 C 4.605469 -28.414062 3.953125 -28.683594 3.257812 -28.683594 C 2.558594 -28.660156 1.863281 -28.390625 1.324219 -27.875 C 0.785156 -27.335938 0.5625 -26.707031 0.5625 -26.03125 C 0.5625 -25.359375 0.832031 -24.683594 1.300781 -24.121094 L 11.003906 -12.464844 L 11.003906 -2.402344 C 11.003906 -1.660156 11.296875 -0.988281 11.769531 -0.515625 C 12.21875 -0.0429688 12.890625 0.246094 13.632812 0.246094 C 14.375 0.246094 15.046875 -0.0429688 15.519531 -0.515625 C 15.992188 -0.988281 16.285156 -1.660156 16.285156 -2.402344 L 16.285156 -12.53125 L 25.964844 -24.121094 C 26.4375 -24.660156 26.707031 -25.359375 26.707031 -26.03125 Z M 26.707031 -26.03125 "/></g></g></g><g fill="#ffffff" fill-opacity="1"><g transform="translate(152.746011, 49.083987)"><g/></g></g><g fill="#ffffff" fill-opacity="1"><g transform="translate(163.054405, 49.083987)"><g/></g></g><g fill="#ffffff" fill-opacity="1"><g transform="translate(173.362799, 49.083987)"><g/></g></g><g fill="#ffffff" fill-opacity="1"><g transform="translate(183.671192, 49.083987)"><g/></g></g><g fill="#ffffff" fill-opacity="1"><g transform="translate(193.979586, 49.083987)"><g/></g></g><g fill="#ffffff" fill-opacity="1"><g transform="translate(204.28798, 49.083987)"><g/></g></g><g fill="#ffffff" fill-opacity="1"><g transform="translate(214.596373, 49.083987)"><g/></g></g><g fill="#ffffff" fill-opacity="1"><g transform="translate(224.909627, 49.083987)"><g><path d="M 22.4375 -20.394531 C 23.089844 -19.855469 23.785156 -19.652344 24.414062 -19.675781 C 25.019531 -19.699219 25.558594 -19.96875 25.988281 -20.347656 C 26.59375 -20.867188 26.863281 -21.605469 26.839844 -22.257812 C 26.816406 -23 26.546875 -23.628906 26.054688 -24.167969 C 24.550781 -25.785156 23.042969 -26.90625 21.382812 -27.625 C 19.71875 -28.324219 17.878906 -28.613281 15.8125 -28.613281 C 13.140625 -28.613281 10.667969 -27.894531 8.535156 -26.636719 C 6.378906 -25.378906 4.605469 -23.605469 3.347656 -21.472656 C 2.089844 -19.316406 1.371094 -16.824219 1.371094 -14.195312 C 1.371094 -10.21875 2.988281 -6.601562 5.613281 -3.996094 C 8.21875 -1.371094 11.835938 0.246094 15.8125 0.246094 C 18.171875 0.246094 20.078125 -0.113281 21.785156 -0.898438 C 23.472656 -1.683594 24.929688 -2.875 26.4375 -4.558594 C 26.996094 -5.121094 27.246094 -5.792969 27.246094 -6.492188 C 27.246094 -7.300781 26.816406 -8.019531 26.167969 -8.445312 C 25.71875 -8.804688 25.199219 -8.9375 24.660156 -8.9375 C 24.121094 -8.9375 23.582031 -8.757812 23.15625 -8.488281 C 22.078125 -7.523438 21.066406 -6.648438 19.898438 -5.996094 C 18.730469 -5.34375 17.429688 -4.941406 15.8125 -4.941406 C 13.296875 -4.941406 11.027344 -5.972656 9.367188 -7.660156 C 7.703125 -9.34375 6.671875 -11.632812 6.671875 -14.148438 C 6.671875 -16.664062 7.703125 -18.957031 9.34375 -20.664062 C 10.984375 -22.347656 13.296875 -23.382812 15.8125 -23.382812 C 18.53125 -23.382812 20.640625 -22.214844 22.4375 -20.394531 Z M 22.4375 -20.394531 "/></g></g></g><g fill="#ffffff" fill-opacity="1"><g transform="translate(253.521596, 49.083987)"><g><path d="M 12.734375 -28.660156 C 12.261719 -28.660156 11.859375 -28.613281 11.566406 -28.546875 C 10.9375 -28.390625 10.601562 -28.144531 10.421875 -27.804688 C 10.242188 -27.445312 10.195312 -27.042969 10.152344 -26.660156 C 10.128906 -26.457031 10.0625 -26.277344 9.996094 -26.078125 L 1.617188 -5.121094 L 1.210938 -4.066406 C 1.078125 -3.707031 0.941406 -3.347656 0.832031 -2.964844 C 0.628906 -2.089844 0.832031 -1.300781 1.28125 -0.71875 C 1.730469 -0.132812 2.402344 0.246094 3.1875 0.269531 C 4.378906 0.359375 5.34375 -0.203125 5.90625 -1.550781 L 7.570312 -5.613281 L 18.035156 -5.613281 L 19.652344 -1.570312 C 19.988281 -0.671875 20.6875 -0.113281 21.472656 0.113281 C 22.257812 0.335938 23.132812 0.179688 23.785156 -0.382812 C 24.480469 -0.808594 24.863281 -1.550781 24.863281 -2.335938 C 24.863281 -2.671875 24.820312 -3.054688 24.660156 -3.390625 L 15.65625 -25.875 C 15.363281 -26.570312 15.027344 -27.246094 14.578125 -27.785156 C 14.105469 -28.300781 13.519531 -28.660156 12.734375 -28.660156 Z M 16.890625 -9.859375 L 8.714844 -9.859375 L 12.800781 -20.304688 Z M 16.890625 -9.859375 "/></g></g></g><g fill="#ffffff" fill-opacity="1"><g transform="translate(279.371179, 49.083987)"><g><path d="M 23.761719 -3.929688 L 19.789062 -9.5 C 20.167969 -9.746094 20.507812 -10.039062 20.84375 -10.332031 C 22.933594 -12.195312 24.28125 -14.824219 24.28125 -17.902344 C 24.28125 -20.976562 22.933594 -23.71875 20.84375 -25.671875 C 18.753906 -27.625 15.855469 -28.816406 12.78125 -28.816406 L 4.582031 -28.816406 C 3.839844 -28.816406 3.367188 -28.703125 3.097656 -28.523438 C 2.828125 -28.34375 2.738281 -28.074219 2.738281 -27.738281 C 2.738281 -27.46875 2.785156 -27.199219 2.851562 -26.90625 C 2.917969 -26.617188 2.964844 -26.300781 2.988281 -26.007812 L 2.988281 -2.425781 C 2.988281 -1.683594 3.277344 -1.011719 3.75 -0.539062 C 4.199219 -0.0664062 4.875 0.222656 5.613281 0.222656 C 6.355469 0.222656 7.03125 -0.0664062 7.5 -0.539062 C 7.972656 -1.011719 8.265625 -1.683594 8.265625 -2.425781 L 8.265625 -7.34375 L 12.78125 -7.34375 C 13.609375 -7.34375 14.441406 -7.433594 15.25 -7.589844 L 19.675781 -0.808594 C 20.125 -0.246094 20.730469 0.113281 21.382812 0.203125 C 22.035156 0.292969 22.683594 0.132812 23.292969 -0.3125 C 23.898438 -0.761719 24.234375 -1.414062 24.324219 -2.066406 C 24.390625 -2.695312 24.210938 -3.390625 23.761719 -3.929688 Z M 8.175781 -11.949219 L 8.175781 -24.03125 L 12.78125 -24.03125 C 14.507812 -24.03125 16.082031 -23.335938 17.25 -22.191406 C 18.394531 -21.046875 19.089844 -19.496094 19.089844 -17.765625 C 19.089844 -15.992188 18.394531 -14.554688 17.25 -13.542969 C 16.082031 -12.53125 14.507812 -11.949219 12.78125 -11.949219 Z M 8.175781 -11.949219 "/></g></g></g><g fill="#ffffff" fill-opacity="1"><g transform="translate(304.704226, 49.083987)"><g><path d="M 12.578125 0.222656 C 15.207031 0.222656 17.699219 -0.492188 19.855469 -1.75 C 21.988281 -3.007812 23.785156 -4.785156 25.066406 -6.941406 C 26.324219 -9.074219 27.042969 -11.542969 27.042969 -14.21875 C 27.042969 -16.84375 26.324219 -19.339844 25.066406 -21.496094 C 23.785156 -23.628906 21.988281 -25.425781 19.855469 -26.683594 C 17.699219 -27.941406 15.207031 -28.660156 12.578125 -28.660156 L 4.582031 -28.660156 C 3.839844 -28.660156 3.367188 -28.546875 3.097656 -28.367188 C 2.828125 -28.1875 2.738281 -27.917969 2.738281 -27.582031 C 2.738281 -27.3125 2.785156 -27.042969 2.851562 -26.75 C 2.917969 -26.457031 2.964844 -26.144531 2.988281 -25.851562 L 2.988281 -2.132812 C 2.988281 -2.042969 3.007812 -1.953125 3.03125 -1.863281 C 3.277344 -0.671875 4.289062 0.222656 5.613281 0.222656 Z M 21.742188 -14.21875 C 21.742188 -11.613281 20.707031 -9.320312 19.046875 -7.703125 C 17.382812 -6.0625 15.09375 -5.054688 12.578125 -4.984375 L 8.265625 -4.984375 L 8.265625 -23.652344 L 12.578125 -23.652344 C 15.09375 -23.628906 17.382812 -22.617188 19.046875 -20.933594 C 20.707031 -19.25 21.742188 -16.914062 21.742188 -14.21875 Z M 21.742188 -14.21875 "/></g></g></g><g fill="#ffffff" fill-opacity="1"><g transform="translate(333.114064, 49.083987)"><g><path d="M 17.921875 -20.6875 C 18.621094 -20.6875 19.25 -20.820312 19.699219 -21.179688 C 20.148438 -21.515625 20.4375 -22.035156 20.4375 -22.910156 C 20.4375 -23.832031 19.898438 -24.796875 19 -25.648438 C 18.101562 -26.503906 16.914062 -27.222656 15.566406 -27.761719 C 14.21875 -28.300781 12.78125 -28.613281 11.433594 -28.613281 C 8.714844 -28.613281 6.355469 -27.804688 4.671875 -26.4375 C 2.964844 -25.066406 1.976562 -23.089844 1.976562 -20.753906 C 1.976562 -19.699219 2.179688 -18.777344 2.582031 -17.992188 C 3.367188 -16.375 4.671875 -15.160156 6.3125 -14.21875 C 7.949219 -13.273438 9.726562 -12.488281 11.363281 -11.792969 C 12.195312 -11.453125 12.914062 -11.09375 13.566406 -10.714844 C 14.824219 -9.972656 15.699219 -9.140625 15.699219 -8.039062 C 15.699219 -6.960938 15.046875 -6.132812 14.148438 -5.59375 C 13.230469 -5.03125 12.039062 -4.738281 10.9375 -4.738281 C 9.792969 -4.738281 8.714844 -5.054688 7.816406 -5.523438 C 6.894531 -5.996094 6.152344 -6.625 5.726562 -7.320312 C 4.917969 -8.039062 4.175781 -8.46875 3.390625 -8.46875 C 2.582031 -8.46875 1.976562 -8.128906 1.617188 -7.613281 C 1.234375 -7.097656 1.078125 -6.421875 1.167969 -5.703125 C 1.460938 -4.335938 2.378906 -2.851562 3.996094 -1.707031 C 5.59375 -0.539062 7.882812 0.246094 10.914062 0.246094 C 13.429688 0.246094 16.015625 -0.515625 17.992188 -1.953125 C 19.96875 -3.367188 21.316406 -5.457031 21.316406 -8.128906 C 21.316406 -9.164062 21.113281 -10.085938 20.707031 -10.871094 C 19.898438 -12.464844 18.507812 -13.679688 16.800781 -14.667969 C 15.09375 -15.632812 13.296875 -16.441406 11.589844 -17.183594 C 10.734375 -17.5625 9.972656 -17.945312 9.296875 -18.328125 C 7.949219 -19.089844 7.074219 -19.945312 7.074219 -21.046875 C 7.074219 -21.964844 7.636719 -22.753906 8.398438 -23.246094 C 9.164062 -23.742188 10.175781 -24.011719 11.074219 -24.011719 C 12.847656 -24.011719 14.058594 -23.203125 15.566406 -21.675781 C 16.015625 -21.246094 16.394531 -21 16.777344 -20.84375 C 17.136719 -20.6875 17.496094 -20.664062 17.921875 -20.6875 Z M 17.921875 -20.6875 "/></g></g></g></svg>